<svg width="30" height="30" viewBox="0 0 30 30" fill="none" xmlns="http://www.w3.org/2000/svg">
<path d="M15 30C23.2843 30 30 23.2843 30 15C30 6.71573 23.2843 0 15 0C6.71573 0 0 6.71573 0 15C0 23.2843 6.71573 30 15 30Z" fill="#F0F0F0"/>
<path d="M30 15C30 9.05309 26.5392 3.91465 21.5217 1.4884V28.5115C26.5392 26.0854 30 20.9469 30 15Z" fill="#D80027"/>
<path d="M0 15C0 20.9469 3.46084 26.0854 8.47828 28.5116V1.4884C3.46084 3.91465 0 9.05309 0 15Z" fill="#D80027"/>
<path d="M17.6088 16.9565L20.2174 15.6522L18.9131 15V13.6957L16.3044 15L17.6088 12.3913H16.3044L15.0001 10.4348L13.6957 12.3913H12.3914L13.6957 15L11.087 13.6957V15L9.78271 15.6522L12.3914 16.9565L11.7392 18.2609H14.3479V20.2174H15.6522V18.2609H18.2609L17.6088 16.9565Z" fill="#D80027"/>
</svg>
