<svg width="30" height="30" viewBox="0 0 30 30" fill="none" xmlns="http://www.w3.org/2000/svg">
<g clip-path="url(#clip0_2238_21)">
<path d="M0.001 2.6087H0V27.3913H0.001V15.0001V2.6087Z" fill="#FF9811"/>
<path d="M14.9999 29.9999C23.2842 29.9999 29.9999 23.2842 29.9999 15C29.9999 6.71576 23.2842 6.10352e-05 14.9999 6.10352e-05C6.7157 6.10352e-05 0 6.71576 0 15C0 23.2842 6.7157 29.9999 14.9999 29.9999Z" fill="#F0F0F0"/>
<path d="M14.9999 0.00012207C10.0926 0.00012207 5.73589 2.35694 2.99927 6.00012H27.0005C24.2639 2.35688 19.9072 0.00012207 14.9999 0.00012207Z" fill="#0052B4"/>
<path d="M14.9999 29.9999C19.9073 29.9999 24.2639 27.6431 27.0006 23.9999H2.99927C5.73583 27.6432 10.0926 29.9999 14.9999 29.9999Z" fill="#0052B4"/>
<path d="M0 15.0001C0 16.0275 0.103594 17.0307 0.30041 18.0001H29.6996C29.8965 17.0307 30 16.0275 30 15.0001C30 13.9726 29.8964 12.9694 29.6996 12.0001H0.30041C0.103594 12.9694 0 13.9726 0 15.0001Z" fill="#0052B4"/>
<path d="M4.39334 4.39349C-1.46445 10.2513 -1.46445 19.7488 4.39334 25.6067C6.81403 23.186 9.14208 20.8579 14.9999 15.0001L4.39334 4.39349Z" fill="#D80027"/>
<path d="M6.07094 11.087L7.04207 14.0762H10.1854L7.6426 15.9238L8.61373 18.913L6.07094 17.0655L3.52803 18.913L4.49939 15.9238L1.95654 14.0762H5.09963L6.07094 11.087Z" fill="#F0F0F0"/>
</g>
<defs>
<clipPath id="clip0_2238_21">
<rect width="30" height="30" fill="white"/>
</clipPath>
</defs>
</svg>
