<svg width="30" height="30" viewBox="0 0 30 30" fill="none" xmlns="http://www.w3.org/2000/svg">
<path d="M15 30C23.2843 30 30 23.2843 30 15C30 6.71573 23.2843 0 15 0C6.71573 0 0 6.71573 0 15C0 23.2843 6.71573 30 15 30Z" fill="#F0F0F0"/>
<path d="M30 15C30 9.05309 26.5392 3.91465 21.5217 1.4884V28.5115C26.5392 26.0854 30 20.9469 30 15Z" fill="#D80027"/>
<path d="M0 15C0 20.9469 3.46084 26.0854 8.47828 28.5116V1.4884C3.46084 3.91465 0 9.05309 0 15Z" fill="#6DA544"/>
<path d="M11.0869 15C11.0869 17.1611 12.8389 18.9131 15 18.9131C17.1611 18.9131 18.913 17.1611 18.913 15V13.6957H11.0869V15Z" fill="#6DA544"/>
<path d="M20.2173 12.3913H16.3042C16.3042 11.6709 15.7202 11.0869 14.9999 11.0869C14.2795 11.0869 13.6955 11.6709 13.6955 12.3913H9.78247C9.78247 13.1117 10.41 13.6956 11.1302 13.6956H11.0868C11.0868 14.416 11.6708 15 12.3912 15C12.3912 15.7204 12.9751 16.3043 13.6955 16.3043H16.3042C17.0247 16.3043 17.6086 15.7204 17.6086 15C18.329 15 18.913 14.416 18.913 13.6956H18.8695C19.5899 13.6956 20.2173 13.1117 20.2173 12.3913Z" fill="#FF9811"/>
</svg>
