<svg width="30" height="30" viewBox="0 0 30 30" fill="none" xmlns="http://www.w3.org/2000/svg">
<path d="M15 30C23.2843 30 30 23.2843 30 15C30 6.71573 23.2843 0 15 0C6.71573 0 0 6.71573 0 15C0 23.2843 6.71573 30 15 30Z" fill="#F0F0F0"/>
<path d="M0 15C0 23.2842 6.71578 30 15 30C15 24.2956 15 15 15 15C15 15 5.21736 15 0 15Z" fill="#0052B4"/>
<path d="M15 0C23.2842 0 30 6.71578 30 15C24.2956 15 15 15 15 15C15 15 15 5.21736 15 0Z" fill="#D80027"/>
<path d="M8.92915 5.21735L9.90046 8.20668H13.0436L10.5008 10.0541L11.472 13.0435L8.92915 11.196L6.3863 13.0435L7.35755 10.0541L4.8147 8.20668H7.95784L8.92915 5.21735Z" fill="#0052B4"/>
<path d="M21.071 16.9565L22.0423 19.9458H25.1854L22.6425 21.7933L23.6138 24.7826L21.071 22.9351L18.5281 24.7826L19.4994 21.7933L16.9565 19.9458H20.0997L21.071 16.9565Z" fill="#D80027"/>
</svg>
