<svg width="30" height="30" viewBox="0 0 30 30" fill="none" xmlns="http://www.w3.org/2000/svg">
<path d="M30 15C30 23.2842 23.2842 30 15 30C6.71578 30 0 23.2842 0 15C0 15.0035 15 0.00169922 15 0C23.2842 0 30 6.71578 30 15Z" fill="#0052B4"/>
<path d="M15.0001 0C14.9993 0 14.9984 0.001 14.9976 0.001L15.0001 0Z" fill="#F0F0F0"/>
<path d="M14.96 15H15.0001C15.0001 14.9864 15.0001 14.9734 15.0001 14.9598C14.9867 14.9733 14.9734 14.9866 14.96 15Z" fill="#F0F0F0"/>
<path d="M15 7.82613C15 5.18678 15 3.45727 15 6.10352e-05H14.9975C6.71437 0.00140869 0 6.71655 0 15H7.82607V10.593L12.233 15H14.9599C14.9733 14.9866 14.9867 14.9733 15.0001 14.9599C15.0001 13.9493 15.0001 13.0476 15.0001 12.2331L10.593 7.82613H15Z" fill="#F0F0F0"/>
<path d="M7.58881 1.95648C5.24277 3.29236 3.29242 5.24271 1.95654 7.58875V15H5.86961V5.86961V5.86955H15C15 4.63539 15 3.45965 15 1.95648H7.58881Z" fill="#D80027"/>
<path d="M15 13.1554L9.67076 7.8262H7.82617C7.82617 7.82614 7.82617 7.8262 7.82617 7.8262L15 15H15C15 15 15 13.7282 15 13.1554Z" fill="#D80027"/>
<path d="M9.04637 17.6087L9.86961 19.3301L11.7286 18.9004L10.8961 20.6173L12.3911 21.8028L10.5297 22.2224L10.5349 24.1304L9.04637 22.9367L7.55785 24.1304L7.56307 22.2224L5.70166 21.8028L7.19668 20.6173L6.36406 18.9004L8.22318 19.3301L9.04637 17.6087Z" fill="#F0F0F0"/>
<path d="M22.458 20.8696L22.8696 21.7303L23.7991 21.5154L23.3828 22.3738L24.1304 22.9666L23.1996 23.1764L23.2022 24.1304L22.458 23.5335L21.7137 24.1304L21.7163 23.1764L20.7856 22.9666L21.5331 22.3738L21.1169 21.5154L22.0463 21.7303L22.458 20.8696Z" fill="#F0F0F0"/>
<path d="M18.6284 11.7391L19.04 12.5999L19.9695 12.385L19.5533 13.2434L20.3008 13.8362L19.3701 14.046L19.3726 15L18.6284 14.4031L17.8842 15L17.8867 14.046L16.9561 13.8362L17.7035 13.2434L17.2873 12.385L18.2168 12.5999L18.6284 11.7391Z" fill="#F0F0F0"/>
<path d="M22.458 6.52173L22.8696 7.38247L23.7991 7.16761L23.3829 8.02606L24.1303 8.6188L23.1996 8.82862L23.2022 9.78265L22.458 9.18575L21.7137 9.78265L21.7163 8.82862L20.7856 8.6188L21.5331 8.02606L21.1169 7.16761L22.0463 7.38247L22.458 6.52173Z" fill="#F0F0F0"/>
<path d="M25.8028 10.4348L26.2143 11.2956L27.1438 11.0806L26.7276 11.9391L27.4751 12.5319L26.5444 12.7417L26.547 13.6957L25.8028 13.0988L25.0585 13.6957L25.061 12.7417L24.1304 12.5319L24.8779 11.9391L24.4616 11.0806L25.3911 11.2956L25.8028 10.4348Z" fill="#F0F0F0"/>
<path d="M23.4111 15L23.7348 15.9964H24.7826L23.9349 16.6123L24.2587 17.6087L23.4111 16.9929L22.5634 17.6087L22.8872 16.6123L22.0396 15.9964H23.0873L23.4111 15Z" fill="#F0F0F0"/>
</svg>
