<svg width="30" height="30" viewBox="0 0 30 30" fill="none" xmlns="http://www.w3.org/2000/svg">
<path d="M30 15C30 23.2842 23.2842 30 15 30C6.71578 30 0 23.2842 0 15C0 15.0036 15 0.00164063 15 0C23.2842 0 30 6.71578 30 15Z" fill="#338AF3"/>
<path d="M15.0001 7.17395V12.2331L9.78271 7.17395H15.0001Z" fill="#0052B4"/>
<path d="M7.82598 15H12.2329L7.82598 9.13043L7.17383 13.6956L7.82598 15Z" fill="#0052B4"/>
<path d="M14.96 15H15.0001C15.0001 14.9865 15.0001 14.9734 15.0001 14.9598C14.9867 14.9733 14.9734 14.9866 14.96 15Z" fill="#F0F0F0"/>
<path d="M15 7.82607C15 5.18672 15 3.45732 15 0H14.9975C6.71437 0.00140625 0 6.71654 0 15H7.82607V10.5931L12.233 15H14.96C14.9733 14.9866 14.9867 14.9733 15.0001 14.9599C15.0001 13.9493 15.0001 13.0476 15.0001 12.2331L10.593 7.82607H15Z" fill="#F0F0F0"/>
<path d="M7.58881 1.95648C5.24277 3.29236 3.29242 5.24271 1.95654 7.58875V15H5.86961V5.86967V5.86955H15C15 4.63539 15 3.45965 15 1.95648H7.58881Z" fill="#D80027"/>
<path d="M15 13.1554L9.67076 7.82611H7.82617V7.82623L14.9999 15H15C15 15 15 13.7281 15 13.1554Z" fill="#D80027"/>
<path d="M16.9565 9.78263V14.9999C16.9565 18.4945 21.5218 19.5652 21.5218 19.5652C21.5218 19.5652 26.087 18.4945 26.087 14.9999V9.78263L21.5218 8.47827L16.9565 9.78263Z" fill="#F3F3F3"/>
<path d="M26.087 9.78262V7.82611H16.9565V9.78262H20.8695V13.6957H16.9565V15V15.0001L20.8695 15.0002V19.3652C21.2631 19.5044 21.5218 19.5653 21.5218 19.5653C21.5218 19.5653 21.7803 19.5045 22.1738 19.3652V15.0001H26.087V15V13.6957H22.1738V9.78256H26.087V9.78262Z" fill="#D80027"/>
</svg>
