<svg width="30" height="30" viewBox="0 0 30 30" fill="none" xmlns="http://www.w3.org/2000/svg">
<path d="M30 15C30 23.2842 23.2842 30 15 30C6.71578 30 0 23.2842 0 15C0 15.0036 15 0.00164063 15 0C23.2842 0 30 6.71578 30 15Z" fill="#0052B4"/>
<path d="M14.96 15H15.0001C15.0001 14.9865 15.0001 14.9734 15.0001 14.9598C14.9867 14.9733 14.9734 14.9866 14.96 15Z" fill="#F0F0F0"/>
<path d="M15 7.82607C15 5.18672 15 3.45732 15 0H14.9975C6.71437 0.00140625 0 6.71654 0 15H7.82607V10.5931L12.233 15H14.9599C14.9733 14.9866 14.9867 14.9733 15.0001 14.9599C15.0001 13.9493 15.0001 13.0476 15.0001 12.2331L10.593 7.82607H15Z" fill="#F0F0F0"/>
<path d="M7.58881 1.95648C5.24277 3.29236 3.29242 5.24271 1.95654 7.58875V15H5.86961V5.86967V5.86955H15C15 4.63539 15 3.45965 15 1.95648H7.58881Z" fill="#D80027"/>
<path d="M15 13.1554L9.67076 7.82611C9.67076 7.82611 7.82617 7.82623 7.82617 7.82611V7.82623L15 15H15C15 15 15 13.7281 15 13.1554Z" fill="#D80027"/>
<path d="M25.9765 11.1304L26.3003 12.1268H27.348L26.5004 12.7426L26.8242 13.739L25.9765 13.1233L25.1289 13.739L25.4527 12.7426L24.605 12.1268H25.6527L25.9765 11.1304Z" fill="#D80027"/>
<path d="M22.2311 18.3043L22.7167 19.799H24.2883L23.0168 20.7227L23.5025 22.2173L22.2311 21.2936L20.9596 22.2173L21.4453 20.7227L20.1738 19.799H21.7454L22.2311 18.3043Z" fill="#D80027"/>
<path d="M22.3725 6.56519L22.7772 7.81083H24.0869L23.0273 8.58046L23.432 9.82605L22.3725 9.05618L21.313 9.82605L21.7177 8.58046L20.6582 7.81083H21.9678L22.3725 6.56519Z" fill="#D80027"/>
<path d="M18.7691 11.0869L19.2548 12.5816H20.8264L19.5549 13.5053L20.0406 15L18.7691 14.0763L17.4977 15L17.9834 13.5053L16.7119 12.5816H18.2835L18.7691 11.0869Z" fill="#D80027"/>
</svg>
