<svg width="30" height="30" viewBox="0 0 30 30" fill="none" xmlns="http://www.w3.org/2000/svg">
<g clip-path="url(#clip0_2241_24)">
<path d="M30 15.0001C30 14.3369 29.9564 13.684 29.873 13.0436H13.0433C9.97882 9.97922 4.39315 4.3939 4.39338 4.39343C-1.46446 10.2513 -1.46446 19.7487 4.39338 25.6067L13.0435 16.9566H29.873C29.9564 16.3161 30 15.6632 30 15.0001Z" fill="black"/>
<path d="M29.9958 15.3412C29.9951 15.3701 29.9945 15.3992 29.9937 15.4281C29.9944 15.3991 29.9951 15.3701 29.9958 15.3412Z" fill="#F0F0F0"/>
<path d="M29.9814 15.7511C29.9801 15.7798 29.9781 15.8083 29.9766 15.8369C29.9781 15.8083 29.98 15.7798 29.9814 15.7511Z" fill="#F0F0F0"/>
<path d="M29.9615 16.0781C29.9585 16.1202 29.9555 16.1623 29.9521 16.2043C29.9555 16.1623 29.9584 16.1202 29.9615 16.0781Z" fill="#F0F0F0"/>
<path d="M29.9111 13.3652C29.9166 13.4153 29.9221 13.4654 29.9271 13.5157C29.9221 13.4654 29.9166 13.4153 29.9111 13.3652Z" fill="#F0F0F0"/>
<path d="M29.9766 14.1631C29.9781 14.1917 29.9801 14.2203 29.9814 14.2489C29.98 14.2203 29.9781 14.1917 29.9766 14.1631Z" fill="#F0F0F0"/>
<path d="M29.9937 14.572C29.9945 14.601 29.9951 14.63 29.9958 14.659C29.9951 14.6299 29.9944 14.601 29.9937 14.572Z" fill="#F0F0F0"/>
<path d="M29.9521 13.7957C29.9555 13.8377 29.9585 13.8799 29.9615 13.922C29.9584 13.8799 29.9555 13.8377 29.9521 13.7957Z" fill="#F0F0F0"/>
<path d="M29.8728 13.0435C29.8795 13.0949 29.8855 13.1465 29.8917 13.198C29.0014 5.76356 22.6741 6.10352e-05 14.9998 6.10352e-05C10.8576 6.10352e-05 7.10753 1.67906 4.39307 4.39365L13.0429 13.0435H29.8728V13.0435Z" fill="#D80027"/>
<path d="M29.8728 16.9565H13.0429L4.39307 25.6064C7.10753 28.3209 10.8576 30 14.9998 30C22.6741 30 29.0015 24.2365 29.8917 16.8019C29.8855 16.8534 29.8794 16.9051 29.8728 16.9565Z" fill="#6DA544"/>
<path d="M29.9266 16.4843C29.9217 16.5346 29.9162 16.5847 29.9106 16.6348C29.9162 16.5847 29.9217 16.5346 29.9266 16.4843Z" fill="#F0F0F0"/>
<path d="M29.9609 13.9219C29.9666 14.0022 29.9718 14.0825 29.9762 14.1631C29.9717 14.0825 29.9666 14.0022 29.9609 13.9219Z" fill="black"/>
<path d="M29.8916 13.1981C29.8983 13.2537 29.9047 13.3094 29.9107 13.3652C29.9046 13.3094 29.8982 13.2537 29.8916 13.1981Z" fill="black"/>
<path d="M29.9268 13.5157C29.9359 13.6088 29.9442 13.7021 29.9516 13.7958C29.9442 13.7021 29.936 13.6087 29.9268 13.5157Z" fill="black"/>
<path d="M29.9999 15C29.9999 15.1141 29.9981 15.2277 29.9956 15.3411C29.9981 15.2276 29.9999 15.114 29.9999 15Z" fill="black"/>
<path d="M29.9762 15.8369C29.9717 15.9174 29.9666 15.9978 29.9609 16.078C29.9666 15.9978 29.9717 15.9174 29.9762 15.8369Z" fill="black"/>
<path d="M29.9516 16.2043C29.9442 16.2979 29.9359 16.3913 29.9268 16.4843C29.936 16.3913 29.9442 16.2979 29.9516 16.2043Z" fill="black"/>
<path d="M29.9107 16.6348C29.9047 16.6906 29.8983 16.7463 29.8916 16.8019C29.8982 16.7463 29.9046 16.6906 29.9107 16.6348Z" fill="black"/>
<path d="M29.9956 14.6589C29.9981 14.7723 29.9999 14.886 29.9999 14.9999C29.9999 14.886 29.9981 14.7723 29.9956 14.6589Z" fill="black"/>
<path d="M29.9814 14.2489C29.9867 14.3562 29.9907 14.464 29.9937 14.5719C29.9907 14.4639 29.9868 14.3562 29.9814 14.2489Z" fill="black"/>
<path d="M29.9933 15.4281C29.9902 15.536 29.9862 15.6438 29.981 15.7511C29.9863 15.6437 29.9903 15.536 29.9933 15.4281Z" fill="black"/>
<path d="M29.9856 14.3424H12.4921L3.5064 5.35803C3.21596 5.66436 2.90113 6.09209 2.70643 6.39672L11.2997 14.9945L2.69922 23.5952C2.86949 23.8981 3.24045 24.3465 3.5009 24.6382L12.4923 15.6468H29.9877C29.997 15.4305 29.9999 15.2132 29.9999 14.9946C29.9999 14.7018 29.9918 14.4859 29.9856 14.3424Z" fill="#FFDA44"/>
<path d="M3.64369 18.1976V16.9412C4.89747 16.9412 5.91741 15.9211 5.91741 14.6674C5.91741 13.7804 5.19572 13.0587 4.30873 13.0587C3.70445 13.0587 3.21279 13.5503 3.21279 14.1547C3.21279 14.5412 3.52715 14.8556 3.91363 14.8556C4.13207 14.8556 4.30978 14.6777 4.30978 14.4593H5.56615C5.56615 15.3706 4.82482 16.1119 3.91369 16.1119C2.83445 16.112 1.95654 15.2339 1.95654 14.1549C1.95654 12.8578 3.01181 11.8026 4.30878 11.8026C5.88859 11.8026 7.1739 13.0879 7.1739 14.6676C7.17384 16.6139 5.59023 18.1976 3.64369 18.1976Z" fill="#FFDA44"/>
</g>
<defs>
<clipPath id="clip0_2241_24">
<rect width="30" height="30" fill="white"/>
</clipPath>
</defs>
</svg>
