<svg width="30" height="30" viewBox="0 0 30 30" fill="none" xmlns="http://www.w3.org/2000/svg">
<path d="M0 15C0 21.4494 4.07062 26.9476 9.78252 29.0669L11.0869 14.9999L9.78252 0.932983C4.07062 3.05244 0 8.55052 0 15Z" fill="#6DA544"/>
<path d="M30 15C30 6.71578 23.2842 0 15 0C13.1651 0 11.4075 0.330059 9.78247 0.932988V29.067C11.4075 29.67 13.1651 30 15 30C23.2842 30 30 23.2842 30 15Z" fill="#D80027"/>
<path d="M9.78267 20.2174C12.6641 20.2174 15 17.8815 15 15C15 12.1185 12.6641 9.78265 9.78267 9.78265C6.9012 9.78265 4.56531 12.1185 4.56531 15C4.56531 17.8815 6.9012 20.2174 9.78267 20.2174Z" fill="#FFDA44"/>
<path d="M6.8479 12.3913V15.6522C6.8479 17.273 8.16181 18.5869 9.78269 18.5869C11.4036 18.5869 12.7175 17.273 12.7175 15.6522V12.3913H6.8479Z" fill="#D80027"/>
<path d="M9.7826 16.6304C9.24319 16.6304 8.80432 16.1916 8.80432 15.6521V14.3478H10.7608V15.6522C10.7608 16.1916 10.322 16.6304 9.7826 16.6304Z" fill="#F0F0F0"/>
</svg>
