<svg width="30" height="30" viewBox="0 0 30 30" fill="none" xmlns="http://www.w3.org/2000/svg">
<path d="M0 15C0 6.71578 6.71578 0 15 0C23.2842 0 30 6.71578 30 15C29.3479 15 15 16.9565 15 16.9565L0 15Z" fill="#D80027"/>
<path d="M30 15C30 23.2842 23.2842 30 15 30C6.71578 30 0 23.2842 0 15" fill="black"/>
<path d="M12.9434 11.9304L14.215 12.8532L13.7304 14.3478L15.0011 13.4234L16.2728 14.3463L15.7863 12.8522L17.0569 11.9279L15.4857 11.9288L14.9992 10.4348L14.5146 11.9294L12.9434 11.9304Z" fill="#FFDA44"/>
<path d="M18.75 8.50482C17.568 7.82238 16.2756 7.50029 15 7.50251V9.45861C15.9428 9.45691 16.898 9.6948 17.7717 10.1993C20.4189 11.7277 21.3291 15.1247 19.8007 17.7718C18.2724 20.419 14.8754 21.3292 12.2282 19.8009C11.457 19.3556 10.8345 18.751 10.3755 18.0534L8.74219 19.1317C9.36311 20.0756 10.2066 20.8928 11.25 21.4952C14.8315 23.5629 19.4274 22.3315 21.4951 18.75C23.5629 15.1685 22.3315 10.5726 18.75 8.50482Z" fill="#FFDA44"/>
<path d="M10.6754 13.6956C10.1569 14.6436 10.505 15.8325 11.453 16.3511L17.8074 19.8234C17.3753 20.6133 17.6048 21.5747 18.3947 22.0068L20.1112 22.9458C20.9011 23.378 21.892 23.0878 22.3241 22.2979L23.2631 20.5814L10.6754 13.6956Z" fill="#FFDA44"/>
</svg>
