<svg width="30" height="30" viewBox="0 0 30 30" fill="none" xmlns="http://www.w3.org/2000/svg">
<path d="M21.5216 1.4884C19.5496 0.534844 17.3372 0 14.9999 0C12.6626 0 10.4502 0.534844 8.47818 1.4884L7.17383 15L8.47818 28.5116C10.4502 29.4652 12.6626 30 14.9999 30C17.3372 30 19.5496 29.4652 21.5216 28.5116L22.826 15L21.5216 1.4884Z" fill="#D80027"/>
<path d="M14.9999 9.78265L16.2949 13.7681H20.486L17.0955 16.2317L18.3905 20.2174L14.9999 17.754L11.6094 20.2174L12.9046 16.2317L9.51416 13.7681H13.705L14.9999 9.78265Z" fill="#FFDA44"/>
<path d="M8.47828 1.48895C3.4609 3.91509 0 9.05311 0 15C0 20.9469 3.4609 26.085 8.47828 28.5111V1.48895Z" fill="#496E2D"/>
<path d="M21.5215 1.48895V28.5111C26.5389 26.085 29.9998 20.9469 29.9998 15C29.9998 9.05317 26.5389 3.91509 21.5215 1.48895Z" fill="#FFDA44"/>
</svg>
