<svg width="30" height="30" viewBox="0 0 30 30" fill="none" xmlns="http://www.w3.org/2000/svg">
<path d="M15 30C23.2843 30 30 23.2843 30 15C30 6.71573 23.2843 0 15 0C6.71573 0 0 6.71573 0 15C0 23.2843 6.71573 30 15 30Z" fill="#F0F0F0"/>
<path d="M15.0001 0C8.55064 0 3.0525 4.07062 0.933105 9.78264H29.0672C26.9477 4.07062 21.4496 0 15.0001 0Z" fill="#D80027"/>
<path d="M15.0001 30C21.4496 30 26.9477 25.9294 29.0671 20.2173H0.933105C3.0525 25.9294 8.55064 30 15.0001 30Z" fill="black"/>
<path d="M20.2176 13.3695H16.3045C16.3045 12.6492 15.7205 12.0652 15.0001 12.0652C14.2798 12.0652 13.6958 12.6492 13.6958 13.3695H9.78271C9.78271 14.09 10.4102 14.6739 11.1305 14.6739H11.0871C11.0871 15.3943 11.671 15.9783 12.3914 15.9783C12.3914 16.6987 12.9754 17.2826 13.6958 17.2826H16.3045C17.0249 17.2826 17.6088 16.6987 17.6088 15.9783C18.3293 15.9783 18.9132 15.3943 18.9132 14.6739H18.8698C19.5901 14.6739 20.2176 14.09 20.2176 13.3695Z" fill="#FF9811"/>
</svg>
