<svg width="30" height="30" viewBox="0 0 30 30" fill="none" xmlns="http://www.w3.org/2000/svg">
<g clip-path="url(#clip0_2238_68)">
<path d="M0 15C0 16.8349 0.330059 18.5925 0.933047 20.2175L15 21.5217L29.067 20.2175C29.67 18.5925 30 16.8349 30 15C30 13.1903 29.6794 11.4555 29.0921 9.84931L15 8.47827L0.907852 9.84936C0.320566 11.4555 0 13.1903 0 15H0Z" fill="#FFDA44"/>
<path d="M15.0001 30C21.4496 30 26.9477 25.9294 29.0671 20.2173H0.933105C3.0525 25.9294 8.55064 30 15.0001 30Z" fill="#D80027"/>
<path d="M15.0001 0C8.55064 0 3.0525 4.07062 0.933105 9.78264H29.0672C26.9477 4.07062 21.4496 0 15.0001 0Z" fill="#6DA544"/>
<path d="M15.0001 22.1739C18.9621 22.1739 22.174 18.962 22.174 15C22.174 11.0379 18.9621 7.82605 15.0001 7.82605C11.038 7.82605 7.82617 11.0379 7.82617 15C7.82617 18.962 11.038 22.1739 15.0001 22.1739Z" fill="#0052B4"/>
<path d="M14.9983 9.44476L16.2933 13.4304H20.4908L17.0936 15.8938L18.3989 19.8913L14.9983 17.4162L11.6029 19.8867L12.9028 15.8938L9.50879 13.4304H13.7032L14.9983 9.44476Z" fill="#FFDA44"/>
<path d="M20.1635 15.992L16.0551 14.657L18.5941 11.1624L17.539 10.3957L14.9998 13.8905L12.4609 10.3957L11.4056 11.1624L13.9446 14.6572L9.83643 15.9919L10.2394 17.2325L14.3478 15.8977V20.2174H15.6521V15.8976L19.7603 17.2325L20.1635 15.992Z" fill="#FFDA44"/>
</g>
<defs>
<clipPath id="clip0_2238_68">
<rect width="30" height="30" fill="white"/>
</clipPath>
</defs>
</svg>
