<svg width="30" height="30" viewBox="0 0 30 30" fill="none" xmlns="http://www.w3.org/2000/svg">
<path d="M15 30C23.2843 30 30 23.2843 30 15C30 6.71573 23.2843 0 15 0C6.71573 0 0 6.71573 0 15C0 23.2843 6.71573 30 15 30Z" fill="#D80027"/>
<path d="M23.8643 12.31H17.0924L14.9998 5.86957L12.9072 12.31H6.13525L11.6138 16.2903L9.52115 22.7309L14.9998 18.7505L20.4784 22.731L18.3857 16.2904L23.8643 12.31ZM13.1472 15.7921L13.8548 13.6143H16.1447L16.8524 15.7921V15.7922L14.9998 17.1381L13.1472 15.7922L13.1472 15.7921ZM15.721 12.31H14.2787L14.9998 10.0904L15.721 12.31ZM17.9619 14.9861L17.5162 13.6143H19.8499L17.9619 14.9861ZM12.4834 13.6143L12.0376 14.9861L10.1496 13.6143H12.4834ZM12.0022 19.3161L12.7234 17.0966L13.8903 17.9443L12.0022 19.3161ZM16.1093 17.9444L17.2762 17.0967L17.9974 19.3161L16.1093 17.9444Z" fill="#FFDA44"/>
</svg>
